<svg width="33" height="33" viewBox="0 0 33 33" fill="none" xmlns="http://www.w3.org/2000/svg">
<g clip-path="url(#clip0_451_28)">
<path d="M10.8709 26.1437C10.8709 26.2858 10.7288 26.3873 10.5257 26.3873C10.3227 26.3873 10.1602 26.3873 10.1602 26.1437C10.1602 25.9002 10.3227 25.9002 10.5054 25.9002C10.6882 25.9002 10.8709 26.0017 10.8709 26.1437ZM8.84038 25.8393C8.84038 25.9814 8.84038 26.1437 9.12465 26.1843C9.19737 26.2192 9.28097 26.2239 9.3571 26.1972C9.43324 26.1706 9.49569 26.1149 9.53076 26.0422C9.53076 25.9002 9.53077 25.7581 9.24649 25.6972C8.96221 25.6363 8.88099 25.6972 8.84038 25.8393ZM11.7238 25.7378C11.541 25.7378 11.4192 25.9002 11.4395 26.0625C11.4598 26.2249 11.6222 26.2858 11.8253 26.2452C12.0283 26.2046 12.1299 26.0625 12.1096 25.9205C12.0893 25.7784 11.9268 25.7175 11.7238 25.7378ZM16.0488 0.00127663C13.9073 -0.0188698 11.7838 0.393647 9.80578 1.21407C7.82772 2.03449 6.03586 3.24591 4.53774 4.77563C3.03961 6.30535 1.8661 8.12184 1.08762 10.1161C0.309148 12.1103 -0.0582448 14.2412 0.00749251 16.3809C-0.0491898 19.886 0.990742 23.3212 2.98204 26.2069C4.97334 29.0925 7.81656 31.2844 11.1146 32.4764C11.9471 32.6185 12.2517 32.0907 12.2517 31.6645V27.6051C12.2517 27.6051 7.66266 28.62 6.688 25.5754C6.688 25.5754 5.957 23.5457 4.88081 23.1195C4.88081 23.1195 3.3782 22.064 4.98234 22.0843C5.50773 22.1552 6.0092 22.3481 6.44648 22.6477C6.88375 22.9474 7.24466 23.3453 7.50022 23.8096C7.71268 24.2259 8.00799 24.5944 8.36805 24.8925C8.7281 25.1906 9.1453 25.412 9.59403 25.5431C10.0428 25.6743 10.5136 25.7124 10.9776 25.6551C11.4416 25.5978 11.889 25.4464 12.2923 25.2101C12.3692 24.3627 12.7347 23.5674 13.3279 22.9571C9.6729 22.5309 5.97731 22.0032 5.97731 15.5284C5.93849 14.797 6.05605 14.0657 6.32215 13.3832C6.58824 12.7008 6.99677 12.0828 7.52052 11.5705C7.02455 10.085 7.08224 8.47039 7.68297 7.02402C9.06374 6.57748 12.2111 8.83045 12.2111 8.83045C14.8999 8.07242 17.746 8.07242 20.4348 8.83045C20.4348 8.83045 23.5822 6.57748 24.9629 7.02402C25.5748 8.46794 25.6326 10.0867 25.1254 11.5705C25.6686 12.075 26.0994 12.6881 26.3898 13.37C26.6802 14.052 26.8236 14.7874 26.8107 15.5284C26.8107 22.0235 22.9527 22.5309 19.2977 22.9571C19.6651 23.369 19.9445 23.8514 20.1191 24.3748C20.2937 24.8983 20.3596 25.4518 20.313 26.0017V31.6239C20.3117 31.761 20.3434 31.8963 20.4056 32.0185C20.4678 32.1407 20.5585 32.2461 20.6701 32.3258C20.7817 32.4054 20.9108 32.457 21.0466 32.4762C21.1824 32.4953 21.3208 32.4815 21.4501 32.4358C24.7421 31.2541 27.5795 29.0685 29.5615 26.1877C31.5436 23.3069 32.5702 19.8765 32.4963 16.3809C32.5154 14.2194 32.1025 12.0759 31.282 10.0761C30.4614 8.07618 29.2496 6.26019 27.7177 4.73459C26.1858 3.20898 24.3645 2.00447 22.3608 1.19168C20.357 0.378883 18.2111 -0.0258269 16.0488 0.00127663ZM6.38341 23.1601V23.5051C6.40605 23.5278 6.43295 23.5459 6.46257 23.5581C6.49219 23.5704 6.52394 23.5768 6.55601 23.5768C6.58808 23.5768 6.61984 23.5704 6.64945 23.5581C6.67907 23.5459 6.70597 23.5278 6.72861 23.5051C6.72861 23.5051 6.72861 23.2819 6.72861 23.1398C6.72861 22.9977 6.46464 23.0789 6.38341 23.1601ZM5.67272 22.6121C5.67272 22.6121 5.67272 22.815 5.81486 22.8759C5.83199 22.8971 5.85365 22.9142 5.87824 22.9259C5.90284 22.9377 5.92974 22.9438 5.957 22.9438C5.98425 22.9438 6.01116 22.9377 6.03576 22.9259C6.06035 22.9142 6.08201 22.8971 6.09914 22.8759C6.09914 22.8759 6.09914 22.673 5.957 22.6121C5.81486 22.5512 5.71333 22.5512 5.67272 22.6121ZM7.70327 25.0071V25.4333C7.70327 25.5754 8.04846 25.5957 8.12969 25.4333C8.21091 25.271 8.12969 25.1492 8.12969 25.0071C8.12969 24.865 7.86572 24.9056 7.78449 25.0071H7.70327ZM6.95197 24.0126V24.4185C6.95197 24.5809 7.23625 24.6418 7.33777 24.5809C7.3892 24.5218 7.41752 24.4461 7.41752 24.3678C7.41752 24.2894 7.3892 24.2137 7.33777 24.1546C7.23625 23.9923 7.0738 23.9314 6.95197 24.0126Z" fill="black"/>
</g>
<defs>
<clipPath id="clip0_451_28">
<rect width="32.5" height="32.5" fill="white"/>
</clipPath>
</defs>
</svg>
