<svg width="39" height="39" viewBox="0 0 39 39" fill="none" xmlns="http://www.w3.org/2000/svg">
<path fill-rule="evenodd" clip-rule="evenodd" d="M19.5096 3.25C15.6331 3.25219 11.8892 4.66106 8.97307 7.215C6.0166 9.80735 4.06506 13.3561 3.45944 17.2412C2.84043 21.1427 3.59699 25.1381 5.59957 28.5431C7.57338 31.9073 10.6861 34.454 14.3746 35.7224C15.1936 35.8768 15.4844 35.36 15.4844 34.9196C15.4844 34.5215 15.4682 33.2101 15.4617 31.8191C10.9442 32.8266 9.99194 29.8529 9.99194 29.8529C9.69949 28.8518 9.06003 27.9877 8.18819 27.4154C6.71432 26.3803 8.30194 26.4062 8.30194 26.4062C8.81707 26.4778 9.30944 26.6711 9.74007 26.9685C10.1723 27.2659 10.5314 27.6607 10.7914 28.1222C11.0108 28.5334 11.3082 28.8958 11.6657 29.1866C12.1981 29.627 12.8527 29.8936 13.5413 29.9505C14.2299 30.0075 14.9194 29.852 15.5169 29.5051C15.5901 28.6601 15.9557 27.8704 16.5488 27.2789C12.9429 26.858 9.14857 25.4296 9.14857 19.0401C9.12344 17.3926 9.72187 15.7963 10.8239 14.5714C10.3267 13.1334 10.3823 11.5619 10.9799 10.1628C10.9799 10.1628 12.3433 9.71587 15.4471 11.869C18.1062 11.1228 20.9194 11.1228 23.5786 11.869C26.6758 9.71587 28.0311 10.1628 28.0311 10.1628C28.6323 11.557 28.6908 13.1333 28.1952 14.5714C29.2961 15.7968 29.8933 17.393 29.8673 19.0401C29.8673 25.441 26.0664 26.8482 22.4508 27.2594C22.841 27.6668 23.141 28.1519 23.3311 28.6831C23.5212 29.2142 23.5972 29.7795 23.5542 30.342C23.5542 32.5715 23.5347 34.3671 23.5347 34.9147C23.5347 35.3568 23.8272 35.8768 24.6511 35.7143C28.3331 34.4406 31.4384 31.8925 33.4066 28.5301C35.4056 25.1279 36.1598 21.1367 35.5402 17.2396C34.9341 13.3581 32.9844 9.81254 30.0314 7.2215C27.1204 4.66889 23.3829 3.25792 19.5112 3.25H19.5096Z" fill="white"/>
</svg>
