<svg width="14" height="12" viewBox="0 0 14 12" fill="none" xmlns="http://www.w3.org/2000/svg">
<path d="M13.2129 1.56627C13.2391 1.22543 13.1286 0.894903 12.9057 0.647291C12.6827 0.399678 12.3656 0.255229 12.0239 0.245674L5.14566 0.0558002C4.80354 0.0464466 4.46493 0.173025 4.20431 0.407691C3.94368 0.642356 3.7824 0.965886 3.75594 1.30711C3.72949 1.64833 3.84002 1.97929 4.06322 2.22718C4.28643 2.47507 4.60402 2.6196 4.94614 2.62895L8.71079 2.73248L1.15641 9.53447C0.895873 9.76906 0.734644 10.0925 0.708194 10.4336C0.681744 10.7747 0.792239 11.1056 1.01537 11.3534C1.2385 11.6012 1.556 11.7457 1.898 11.755C2.24001 11.7644 2.57852 11.6378 2.83906 11.4032L10.3934 4.60125L10.1023 8.35548C10.0892 8.52443 10.1096 8.69265 10.1623 8.85051C10.2151 9.00838 10.2991 9.15281 10.4096 9.27555C10.5201 9.3983 10.655 9.49695 10.8065 9.56589C10.958 9.63482 11.1231 9.67269 11.2925 9.67732C11.4619 9.68195 11.6322 9.65326 11.7938 9.59288C11.9553 9.5325 12.1048 9.44162 12.2339 9.32543C12.3629 9.20923 12.4689 9.07 12.5459 8.91568C12.6228 8.76136 12.6691 8.59497 12.6822 8.42601L13.2129 1.56627Z" fill="black"/>
</svg>
