<svg width="13" height="12" viewBox="0 0 13 12" fill="none" xmlns="http://www.w3.org/2000/svg">
<path d="M12.6114 1.58757C12.6376 1.24673 12.5271 0.916205 12.3041 0.668592C12.0812 0.420979 11.764 0.276531 11.4223 0.266976L4.5441 0.0771014C4.20198 0.0677479 3.86337 0.194327 3.60274 0.428992C3.34212 0.663657 3.18084 0.987187 3.15438 1.32841C3.12792 1.66963 3.23845 2.00059 3.46166 2.24848C3.68486 2.49638 4.00246 2.6409 4.34457 2.65025L8.10922 2.75378L0.554849 9.55577C0.29431 9.79036 0.133082 10.1138 0.106631 10.4549C0.0801818 10.796 0.190677 11.1269 0.413809 11.3747C0.636942 11.6225 0.954435 11.767 1.29644 11.7763C1.63845 11.7857 1.97696 11.6591 2.2375 11.4245L9.79187 4.62255L9.50076 8.37678C9.48766 8.54573 9.50806 8.71395 9.56078 8.87181C9.6135 9.02968 9.69752 9.17411 9.80804 9.29685C9.91856 9.4196 10.0534 9.51825 10.2049 9.58719C10.3564 9.65612 10.5216 9.69399 10.691 9.69862C10.8604 9.70325 11.0307 9.67456 11.1922 9.61418C11.3537 9.5538 11.5033 9.46292 11.6323 9.34673C11.7614 9.23054 11.8674 9.0913 11.9443 8.93698C12.0212 8.78266 12.0676 8.61627 12.0807 8.44731L12.6114 1.58757Z" fill="white"/>
</svg>
